<svg width="22" height="21" viewBox="0 0 22 21" fill="none" xmlns="http://www.w3.org/2000/svg">
<path d="M2.48926 19.7949C2.92383 19.7949 3.29004 19.6387 3.78808 19.3604L8.20703 16.9678L13.0654 19.6729C13.5537 19.9463 14.0615 20.0781 14.5645 20.0781C15.0625 20.0781 15.5654 19.9463 16.0293 19.6826L20.4922 17.1729C21.3174 16.7188 21.6689 16.0791 21.6689 15.1905V2.13871C21.6689 1.15238 21.0195 0.517609 20.0088 0.517609C19.5742 0.517609 19.2129 0.698273 18.7051 0.976596L14.1543 3.50101L9.30566 0.649445C8.83691 0.385773 8.33398 0.253937 7.82617 0.253937C7.35254 0.253937 6.8789 0.376008 6.46387 0.615265L2.00098 3.12015C1.18066 3.58402 0.829102 4.18461 0.829102 5.06839V18.1885C0.829102 19.1797 1.47852 19.7949 2.48926 19.7949ZM6.94726 14.9219L3.53418 16.8018C3.44629 16.8457 3.36816 16.875 3.30469 16.875C3.14844 16.875 3.06543 16.7481 3.06543 16.5625V5.76175C3.06543 5.41507 3.16797 5.25394 3.48047 5.07328L6.67871 3.24222C6.77637 3.18851 6.85449 3.14457 6.94726 3.09086V14.9219ZM9.25195 14.8047V3.37406C9.34961 3.42777 9.46191 3.49125 9.55957 3.54496L13.2461 5.71293V17.0313C13.1289 16.9678 13.0068 16.9043 12.8848 16.8408L9.25195 14.8047ZM15.5508 17.124V5.41507L18.9541 3.54984C19.0225 3.51078 19.0908 3.49125 19.1494 3.49125C19.3154 3.49125 19.4326 3.6182 19.4326 3.78421V14.4531C19.4326 14.7998 19.3203 14.9707 19.0176 15.1416L16 16.8701C15.8535 16.958 15.6973 17.0459 15.5508 17.124Z" fill="black" fill-opacity="0.85"/>
</svg>
