<svg width="22" height="22" viewBox="0 0 22 22" fill="none" xmlns="http://www.w3.org/2000/svg">
<path d="M0.829102 10.5781C0.829102 11.4586 1.5511 12.1761 2.42708 12.1761H9.73508V19.4841C9.73508 20.3561 10.4486 21.0781 11.3291 21.0781C12.2096 21.0781 12.9355 20.3561 12.9355 19.4841V12.1761H20.2351C21.1071 12.1761 21.8291 11.4586 21.8291 10.5781C21.8291 9.69763 21.1071 8.97168 20.2351 8.97168H12.9355V1.6761C12.9355 0.800123 12.2096 0.078125 11.3291 0.078125C10.4486 0.078125 9.73508 0.800123 9.73508 1.6761V8.97168H2.42708C1.5511 8.97168 0.829102 9.69763 0.829102 10.5781Z" fill="white"/>
</svg>
