<svg width="20" height="23" viewBox="0 0 20 23" fill="none" xmlns="http://www.w3.org/2000/svg">
<path d="M5.58718 4.36646H7.7864V2.63574C7.7864 2.2313 8.06609 1.96759 8.52201 1.96759H11.9466C12.4026 1.96759 12.6823 2.2313 12.6823 2.63574V4.36646H14.8748V2.5505C14.8748 0.942363 13.8459 0 12.0847 0H8.37733C6.61608 0 5.58718 0.942363 5.58718 2.5505V4.36646ZM1.44067 5.89501H19.0346C19.5779 5.89501 20 5.48179 20 4.93855C20 4.40152 19.5779 3.99496 19.0346 3.99496H1.44067C0.90409 3.99496 0.475342 4.40152 0.475342 4.93855C0.475342 5.48845 0.90409 5.89501 1.44067 5.89501ZM17.7628 5.69304H2.71919L3.34464 19.911C3.40278 21.3052 4.20973 22.0442 5.62207 22.0442H14.8532C16.2722 22.0442 17.0761 21.3052 17.1373 19.911L17.7628 5.69304ZM7.08475 18.9283C6.67108 18.9283 6.38036 18.6571 6.37059 18.2403L6.07096 8.02481C6.0612 7.61159 6.3395 7.33064 6.78246 7.33064C7.2019 7.33064 7.49928 7.60493 7.50904 8.01505L7.79891 18.231C7.80867 18.6474 7.52727 18.9283 7.08475 18.9283ZM10.2426 18.9283C9.80936 18.9283 9.50842 18.6536 9.50842 18.2435V8.0186C9.50842 7.60849 9.80936 7.33064 10.2426 7.33064C10.6726 7.33064 10.9669 7.60849 10.9669 8.0186V18.2435C10.9669 18.6536 10.6726 18.9283 10.2426 18.9283ZM13.3906 18.9283C12.948 18.9283 12.6666 18.6474 12.6764 18.231L12.9663 8.02171C12.9791 7.60493 13.2734 7.33064 13.6929 7.33064C14.1292 7.33064 14.4141 7.61159 14.4044 8.02481L14.1078 18.2403C14.095 18.6571 13.8042 18.9283 13.3906 18.9283Z" fill="#D80A0A"/>
</svg>
